<?xml version="1.0" encoding="UTF-8" standalone="no"?>
<svg
   xmlns:dc="http://purl.org/dc/elements/1.1/"
   xmlns:cc="http://creativecommons.org/ns#"
   xmlns:rdf="http://www.w3.org/1999/02/22-rdf-syntax-ns#"
   xmlns:svg="http://www.w3.org/2000/svg"
   xmlns="http://www.w3.org/2000/svg"
   xmlns:sodipodi="http://sodipodi.sourceforge.net/DTD/sodipodi-0.dtd"
   xmlns:inkscape="http://www.inkscape.org/namespaces/inkscape"
   width="921.0683mm"
   height="158.09482mm"
   viewBox="0 0 921.06829 158.09482"
   version="1.1"
   id="svg8"
   inkscape:version="1.0 (4035a4fb49, 2020-05-01)"
   sodipodi:docname="BCA_Syariah.svg">
  <defs
     id="defs2" />
  <sodipodi:namedview
     id="base"
     pagecolor="#ffffff"
     bordercolor="#666666"
     borderopacity="1.0"
     inkscape:pageopacity="0.0"
     inkscape:pageshadow="2"
     inkscape:zoom="0.028284271"
     inkscape:cx="94.299282"
     inkscape:cy="-2122.5376"
     inkscape:document-units="mm"
     inkscape:current-layer="layer1"
     inkscape:document-rotation="0"
     showgrid="false"
     inkscape:window-width="1366"
     inkscape:window-height="715"
     inkscape:window-x="-8"
     inkscape:window-y="-8"
     inkscape:window-maximized="1" />
  <metadata
     id="metadata5">
    <rdf:RDF>
      <cc:Work
         rdf:about="">
        <dc:format>image/svg+xml</dc:format>
        <dc:type
           rdf:resource="http://purl.org/dc/dcmitype/StillImage" />
        <dc:title></dc:title>
      </cc:Work>
    </rdf:RDF>
  </metadata>
  <g
     transform="translate(959.91855,-1081.7775)"
     inkscape:label="Layer 1"
     inkscape:groupmode="layer"
     id="layer1">
    <path
       d="m -900.80043,1209.3059 c -12.20205,-0.5066 -25.23093,-3.3706 -37.69058,-8.2854 -2.90527,-1.1458 -7.25493,-3.0396 -8.91803,-3.8825 -0.65922,-0.3342 -0.70622,-0.4129 -1.99717,-3.3438 -6.27387,-14.2437 -9.73185,-28.8726 -10.444,-44.1848 -0.12752,-2.7473 -0.0675,-9.7245 0.10489,-12.1733 1.03041,-14.6022 4.31106,-27.7945 10.21561,-41.0801 0.46205,-1.0402 0.97183,-2.1527 1.13251,-2.473 l 0.29237,-0.5818 2.12938,-0.9691 c 11.54641,-5.2545 23.78954,-8.5966 36.25621,-9.8966 13.59869,-1.4182 26.11802,-0.5552 39.14527,2.6982 8.31027,2.0758 15.94492,4.8175 24.60205,8.8348 l 0.72127,0.3347 0.71135,1.5527 c 6.16962,13.4714 9.93745,27.6272 11.0937,41.6803 1.35919,16.5181 -1.09508,33.4664 -7.21813,49.846 -1.46049,3.9064 -4.12207,10.066 -4.48575,10.3806 -0.38914,0.3368 -5.17738,2.4285 -8.56887,3.7432 -2.17761,0.8441 -7.05941,2.4841 -9.36662,3.1468 -9.25467,2.6573 -18.36908,4.1482 -28.2496,4.6212 -1.86492,0.088 -7.6215,0.108 -9.46639,0.03 z m 10.56239,-2.7422 c 14.72154,-0.8211 29.64001,-4.4775 42.21811,-10.3473 l 0.94127,-0.4396 0.95569,-2.1434 c 5.72079,-12.8322 9.04055,-25.5902 10.08689,-38.764 1.46468,-18.4387 -2.04604,-37.8397 -10.17121,-56.2078 l -1.04154,-2.3543 -1.8248,-0.8293 c -14.48447,-6.58 -29.06122,-10.2374 -43.65552,-10.9534 -2.61057,-0.1281 -8.79709,-0.07 -11.40941,0.1084 -14.33951,0.976 -27.12796,4.0861 -39.55939,9.6204 -2.6268,1.1695 -2.44484,1.0565 -2.72665,1.6932 -0.1366,0.3084 -0.56338,1.27 -0.94827,2.137 -4.84117,10.9024 -8.06937,22.9347 -9.32175,34.7434 -0.45432,4.2839 -0.58739,6.92 -0.59188,11.7226 0,6.7542 0.4292,12.213 1.49081,18.679 1.7009,10.36 5.10954,21.5354 9.36043,30.6877 l 0.42897,0.924 0.88022,0.4111 c 14.87692,6.9482 30.00207,10.7975 44.87373,11.4196 2.23995,0.093 7.39904,0.038 10.0143,-0.1071 z m -11.38449,-6.6782 c -0.18485,-0.036 -0.22363,-0.1085 -0.22087,-0.4122 0.008,-0.8514 0.57685,-9.7523 0.62679,-9.8026 0.0308,-0.03 1.045,-0.012 2.25556,0.043 2.02726,0.089 2.23835,0.1168 2.672,0.3405 0.34492,0.1775 0.55607,0.3848 0.78893,0.7744 0.75931,1.2704 0.48093,3.4623 -0.54858,4.3186 -0.53556,0.4455 -1.17145,0.6002 -2.4642,0.6002 h -1.11421 l -0.0609,0.7266 c -0.0333,0.3995 -0.0914,1.3462 -0.12789,2.1039 l -0.0668,1.3777 -0.75775,-0.014 c -0.41685,-0.012 -0.85866,-0.032 -0.98202,-0.057 z m 3.8613,-5.8159 c 0.48248,-0.2423 0.69722,-0.7187 0.69736,-1.5472 7e-5,-0.5513 -0.0398,-0.7172 -0.22409,-0.932 -0.25185,-0.2936 -0.77124,-0.4453 -1.53771,-0.449 -0.40816,0 -0.52662,0.033 -0.56499,0.1731 -0.0267,0.096 -0.0787,0.7698 -0.1151,1.4963 l -0.0667,1.3211 0.3823,0.04 c 0.82411,0.087 1.09297,0.067 1.42868,-0.1024 z m 10.91352,5.2602 c -0.12324,-0.7102 -1.35168,-9.9225 -1.32567,-9.9416 0.0154,-0.012 0.92478,-0.147 2.02093,-0.3019 2.23151,-0.3156 2.8556,-0.2778 3.43092,0.2089 0.53545,0.4531 0.75256,1.071 0.7534,2.1445 0,0.8179 -0.0308,1.0037 -0.22687,1.32 -0.12511,0.2023 -0.36979,0.4586 -0.54336,0.5689 l -0.31578,0.2012 0.29423,0.066 c 0.16187,0.035 0.36627,0.086 0.45419,0.1097 0.29992,0.081 0.87475,0.7611 1.03639,1.2268 0.22366,0.645 0.30959,2.1765 0.15016,2.6765 -0.17788,0.5577 -0.54596,1.0134 -1.01118,1.252 -0.26636,0.1368 -1.05714,0.3034 -2.3608,0.4981 -1.0781,0.1612 -2.03677,0.2939 -2.13014,0.2948 -0.11433,0 -0.18843,-0.1051 -0.22642,-0.324 z m 3.02742,-1.6168 c 0.18649,-0.062 0.43311,-0.2391 0.54798,-0.3954 0.42052,-0.5712 0.12596,-2.2676 -0.44748,-2.5759 -0.20637,-0.1111 -1.6405,-0.075 -1.75929,0.043 -0.0389,0.039 0.3471,2.7767 0.42847,3.0419 0.0432,0.1387 0.61883,0.086 1.23032,-0.1159 z m -0.61996,-4.825 c 0.17449,-0.073 0.3875,-0.2664 0.47329,-0.4334 0.2069,-0.4022 0.19798,-1.1806 -0.0187,-1.6157 -0.25718,-0.5179 -0.53419,-0.6133 -1.40326,-0.4835 -0.70776,0.1059 -0.72314,0.1145 -0.67436,0.3709 0.0269,0.1443 0.10105,0.6908 0.16336,1.2145 0.0626,0.5234 0.13155,1.0109 0.15375,1.0832 0.0471,0.1538 0.78646,0.077 1.30561,-0.136 z m -24.48772,6.5751 c -0.85319,-0.1192 -1.63096,-0.3993 -2.02927,-0.7295 -0.99192,-0.8221 -1.05103,-1.7418 -0.42825,-6.6657 0.23857,-1.8861 0.45873,-3.4544 0.48914,-3.4852 0.0504,-0.053 1.88759,0.1355 1.9528,0.1982 0.0154,0.015 -0.17522,1.6212 -0.42344,3.5703 -0.2483,1.9492 -0.45142,3.8299 -0.45142,4.1794 0,0.565 0.0319,0.6673 0.28393,0.921 0.50391,0.5068 1.46089,0.5224 1.94863,0.031 0.39207,-0.3944 0.50518,-0.9585 0.96754,-4.8276 l 0.42345,-3.5426 0.60466,0.064 c 0.33262,0.034 0.78638,0.09 1.00869,0.1194 l 0.40399,0.055 -0.47213,3.7741 c -0.29141,2.3291 -0.55319,4.035 -0.68402,4.4563 -0.24896,0.8024 -0.74225,1.4119 -1.36813,1.6914 -0.49102,0.2192 -1.43863,0.2994 -2.22617,0.1887 z m -7.90125,-1.1961 -0.98233,-0.2646 0.0609,-0.6041 c 0.0334,-0.3324 0.1504,-1.0761 0.25986,-1.6532 0.27008,-1.4255 0.26048,-1.6538 -0.0845,-2.0004 -0.28669,-0.2882 -0.68923,-0.435 -1.51733,-0.5538 l -0.45515,-0.066 -0.4337,2.1378 c -0.23852,1.1757 -0.44432,2.1524 -0.45732,2.1703 -0.0238,0.033 -1.95656,-0.3711 -2.00372,-0.4185 -0.0357,-0.035 2.13429,-10.0906 2.18991,-10.1467 0.0787,-0.079 4.07299,0.8655 4.5748,1.0827 0.59718,0.2584 1.12982,0.8419 1.28128,1.4039 0.13652,0.5066 0.0667,1.5026 -0.15943,2.2677 -0.19675,0.6658 -0.75986,1.2631 -1.28463,1.362 l -0.36935,0.07 0.39625,0.2888 c 0.55323,0.4029 0.579,0.6377 0.26166,2.3805 -0.19857,1.0902 -0.25433,1.6541 -0.21317,2.1534 0.0307,0.3719 0.0244,0.6712 -0.0138,0.6658 -0.0374,-0.012 -0.51094,-0.1303 -1.05113,-0.2759 z m 0.097,-6.6379 c 0.26068,-0.2461 0.53735,-1.0399 0.53499,-1.535 -0.008,-0.4197 -0.2019,-0.7835 -0.51271,-0.9335 -0.28718,-0.1384 -1.77076,-0.4664 -1.83181,-0.4051 -0.0586,0.059 -0.62914,2.7294 -0.59157,2.7686 0.018,0.018 0.33879,0.1181 0.71287,0.2213 0.82566,0.2272 1.36391,0.1903 1.68823,-0.1155 z m 40.47829,6.2725 c -0.65589,-0.2128 -1.2812,-0.9371 -1.62066,-1.8773 -0.40815,-1.1307 -0.95582,-3.9649 -1.02291,-5.2933 -0.0764,-1.5112 0.0676,-1.997 0.78314,-2.6438 0.62362,-0.5638 1.48139,-0.8557 2.51517,-0.8557 1.32755,0 2.14063,0.6478 2.56185,2.0404 0.10225,0.3382 0.18629,0.6623 0.1867,0.7203 0,0.1251 -1.70838,0.4756 -1.79793,0.3688 -0.0342,-0.043 -0.13838,-0.2832 -0.23204,-0.5398 -0.32552,-0.8901 -0.8432,-1.2216 -1.48592,-0.9514 -0.45272,0.1901 -0.68265,0.63 -0.68265,1.3063 0,0.7024 0.77689,4.7023 1.02673,5.2865 0.28106,0.6572 0.57945,0.9062 1.15258,0.9614 0.85557,0.084 1.19332,-0.4856 1.01681,-1.7106 -0.0497,-0.3403 -0.0897,-0.6661 -0.091,-0.7243 -0.008,-0.1023 1.77214,-0.4984 1.85611,-0.4138 0.0228,0.023 0.0692,0.4885 0.10201,1.0345 0.0471,0.7736 0.0228,1.1205 -0.10793,1.5741 -0.21165,0.7318 -0.80273,1.3611 -1.51009,1.6079 -0.69548,0.2424 -2.06571,0.2991 -2.64997,0.1097 z m 7.15091,-2.0204 c -0.12524,-1.3935 -0.57016,-9.3554 -0.53972,-9.6618 0.0308,-0.3136 0.0462,-0.3221 1.20332,-0.6701 0.64465,-0.1939 1.18989,-0.3343 1.21176,-0.3119 0.22002,0.2247 5.1376,9.1489 5.07459,9.2091 -0.0462,0.042 -0.4153,0.1785 -0.81963,0.2982 -0.40433,0.1193 -0.79015,0.2389 -0.85734,0.2652 -0.0748,0.029 -0.34615,-0.3846 -0.70178,-1.07 -0.31863,-0.6142 -0.63353,-1.1377 -0.69961,-1.163 -0.066,-0.026 -0.5629,0.083 -1.10406,0.2405 l -0.98396,0.2868 0.008,0.4956 c 0,0.2723 0.0398,0.8866 0.0857,1.3646 l 0.0825,0.8691 -0.68377,0.2022 c -1.32811,0.3927 -1.20114,0.4283 -1.27145,-0.3545 z m 3.03972,-4.7236 c 0.0335,-0.036 -0.40196,-1.0151 -0.96727,-2.1724 -0.5654,-1.1573 -1.03022,-2.0366 -1.03308,-1.9538 -0.008,0.2028 0.39451,4.1008 0.45085,4.3768 l 0.0447,0.2189 0.72225,-0.2003 c 0.39707,-0.1096 0.74931,-0.2314 0.78255,-0.2692 z m -60.64516,4.7938 c -0.64459,-0.1874 -0.65882,-0.2129 -0.50223,-0.9013 l 0.0788,-0.3471 -0.35281,0.3115 c -0.72304,0.6382 -1.61863,0.6808 -2.73152,0.1301 -1.77492,-0.8787 -1.92686,-2.0902 -0.77347,-6.1676 0.74288,-2.6263 1.4039,-3.7267 2.42339,-4.0339 1.07226,-0.323 2.96269,0.1158 3.84089,0.8908 0.4557,0.4023 0.64775,0.7657 0.75684,1.4324 0.0863,0.5276 -0.0568,1.969 -0.19643,1.969 -0.0398,0 -0.20276,-0.042 -0.36165,-0.092 -0.15887,-0.052 -0.53799,-0.1626 -0.84256,-0.2477 l -0.55361,-0.1543 0.0956,-0.5815 c 0.0796,-0.4838 0.0668,-0.643 -0.078,-0.9501 -0.19549,-0.4141 -0.81258,-0.7786 -1.31813,-0.7786 -0.37531,0 -0.91274,0.354 -1.14187,0.7521 -0.22106,0.3839 -1.38106,4.5478 -1.45161,5.2104 -0.0356,0.3354 -0.008,0.6251 0.10153,0.8744 0.31107,0.7485 1.28437,1.0144 1.92213,0.5257 0.3323,-0.2551 0.85686,-1.2247 0.97893,-1.81 0.0642,-0.3067 0.0608,-0.3095 -0.5128,-0.437 -0.31745,-0.071 -0.60413,-0.1444 -0.63705,-0.1638 -0.0918,-0.054 0.32767,-1.5449 0.43459,-1.5449 0.30239,0 2.96838,0.9454 2.93364,1.0405 -0.0218,0.062 -0.34991,1.2724 -0.72783,2.6913 -0.37807,1.4188 -0.70963,2.5744 -0.73711,2.5682 -0.0269,-0.012 -0.3188,-0.092 -0.64768,-0.1855 z m 20.30634,-18.0636 c -0.30986,-1.0189 -0.84687,-1.8876 -1.76634,-2.8575 -1.95922,-2.0671 -4.94027,-3.3331 -7.87787,-3.3455 -0.8685,-0.012 -1.46854,0.07 -2.88973,0.3527 -4.0817,0.8133 -6.49468,1.1027 -9.26705,1.1108 -2.21135,0.012 -2.64175,-0.046 -4.08549,-0.5148 -1.72776,-0.5599 -3.24303,-1.5295 -4.73702,-3.0319 -2.0783,-2.0897 -3.30914,-4.443 -3.59403,-6.8714 -0.23621,-2.0141 0.0496,-5.3682 0.61379,-7.2094 0.41383,-1.3502 1.03582,-2.5939 1.61446,-3.228 l 0.20274,-0.2222 0.2765,0.4386 c 0.66098,1.0477 1.75104,1.952 3.32553,2.758 1.19887,0.6136 2.47479,1.0344 5.46079,1.801 11.63569,2.9877 16.97878,5.5355 20.48547,9.7688 2.57259,3.1057 4.09357,6.8779 4.27455,10.6008 l 0.0568,1.1772 -0.93638,-7e-4 h -0.93632 l -0.22083,-0.7253 z m 4.25644,0.082 c 0,-1.6564 -0.60572,-4.6356 -1.34536,-6.618 -0.70889,-1.8997 -1.9407,-4.1527 -3.10173,-5.6731 -3.91187,-5.1236 -9.24095,-7.8146 -22.00887,-11.1148 -1.3153,-0.3396 -2.70545,-0.7312 -3.08895,-0.8697 -4.14871,-1.4972 -7.01795,-5.0461 -7.8842,-9.7516 -0.23748,-1.2906 -0.24009,-3.9955 -0.008,-5.3035 0.61923,-3.4452 2.21731,-6.633 4.52523,-9.0267 2.71144,-2.8119 5.96683,-4.2203 10.87784,-4.7052 4.23674,-0.4184 9.13457,1.9541 13.53143,6.5553 4.95402,5.1838 8.39103,12.1942 9.65411,19.6908 0.54644,3.2438 0.55956,3.5833 0.61117,15.9655 l 0.048,11.497 h -0.90679 -0.90681 v -0.646 z m 3.84678,0.2203 c -0.0284,-0.2342 -0.0755,-4.3483 -0.10479,-9.1427 -0.0732,-12.0113 -0.20196,-15.0243 -0.81061,-18.9865 -0.44012,-2.8651 -1.11315,-5.5428 -1.99823,-7.951 -1.01965,-2.7731 -3.13896,-6.5842 -4.88312,-8.7812 -0.32823,-0.413 -1.47367,-1.6755 -2.5456,-2.8051 -1.07185,-1.1298 -2.34109,-2.5048 -2.82032,-3.0563 -4.05121,-4.6576 -5.92992,-9.1794 -5.92992,-14.2717 0,-5.5921 1.86792,-10.4053 5.42446,-13.9782 5.66291,-5.6886 15.00765,-7.4167 22.97848,-4.2496 4.38953,1.7445 7.91869,4.97 9.90699,9.0547 1.35122,2.7758 1.95645,5.5929 1.95897,9.1174 0.008,3.2345 -0.54711,5.6469 -1.93954,8.5166 -1.24835,2.573 -3.05415,4.9727 -6.29514,8.3659 -2.29809,2.4062 -2.94268,3.1452 -3.80256,4.3597 -4.24619,5.9977 -6.24181,12.2878 -6.7068,21.1394 -0.0553,1.0469 -0.10025,6.6715 -0.10056,12.4989 v 10.5954 h -1.13985 -1.13978 z m 4.15431,-10.6706 c 0.0332,-6.7908 0.0975,-11.6212 0.16569,-12.4489 0.32619,-3.9633 1.16966,-7.8073 2.46209,-11.2216 3.64998,-9.6425 10.93613,-17.2219 18.06906,-18.7968 2.56184,-0.5653 7.32218,0.2311 10.26966,1.7183 3.9826,2.0096 7.11902,6.3274 8.17218,11.2514 0.32423,1.5156 0.37538,4.217 0.10962,5.7772 -0.78767,4.6215 -3.47199,8.1164 -7.48462,9.7449 -0.46918,0.1904 -2.06379,0.6589 -3.54347,1.0411 -13.49871,3.4856 -18.72193,6.2728 -22.50175,12.0078 -1.38248,2.0974 -2.61222,5.0442 -3.14869,7.5448 -0.23148,1.0786 -0.50662,3.2524 -0.50662,4.0015 v 0.4766 h -1.05868 -1.05865 z m 3.95834,10.5203 c 0.008,-0.8662 0.26051,-2.6446 0.55321,-3.8201 1.16892,-4.6942 4.26127,-8.8491 8.4834,-11.399 3.421,-2.0658 7.79775,-3.6524 16.11876,-5.8426 1.64597,-0.4334 3.2841,-0.8981 3.64029,-1.0332 2.18069,-0.8261 4.12933,-2.2132 4.85247,-3.4537 l 0.25839,-0.4433 0.23604,0.284 c 1.43651,1.7279 2.23573,4.7253 2.24002,8.3997 0.008,2.4579 -0.20691,3.5395 -1.01062,5.2099 -1.64903,3.4276 -4.73278,6.0471 -8.1537,6.9259 -2.38939,0.6138 -6.65443,0.3427 -12.27329,-0.7799 -2.32727,-0.4648 -3.62759,-0.5258 -5.03214,-0.2348 -3.9219,0.8114 -6.9534,3.1916 -7.8798,6.1871 l -0.17807,0.576 h -0.92849 -0.92843 l 0.008,-0.576 z m 207.70966,21.8582 c -0.21927,-0.019 -1.07118,-0.086 -1.8933,-0.1458 -7.52486,-0.5529 -14.86242,-2.6255 -20.52705,-5.7989 -11.03369,-6.1813 -17.87146,-16.6985 -19.57937,-30.116 -1.98175,-15.5682 3.91077,-33.1606 15.68728,-46.8361 11.03323,-12.8122 26.05144,-20.8449 42.89502,-22.9436 4.05362,-0.5051 9.36151,-0.6769 11.35243,-0.3673 1.26373,0.1965 3.41839,0.7481 4.97223,1.2731 0.63924,0.216 1.1946,0.3924 1.23409,0.3924 0.0395,0 0.68164,-0.7849 1.42682,-1.7444 l 1.35506,-1.7449 0.91947,0.4877 c 16.86795,8.9488 20.54922,10.9154 20.57417,10.9906 0.0286,0.085 -15.34379,28.2331 -15.51834,28.4164 -0.0445,0.047 -0.54537,-0.2737 -1.11238,-0.7128 -5.67968,-4.3985 -11.95939,-6.9033 -18.66834,-7.4457 -1.79933,-0.1458 -5.31409,-0.071 -7.17449,0.1521 -7.2468,0.8692 -13.33351,3.693 -17.93647,8.3214 -4.07683,4.0992 -6.84316,9.5096 -7.83527,15.3241 -0.25942,1.5203 -0.36194,4.802 -0.19472,6.2317 0.72171,6.1714 3.83746,11.357 8.84747,14.7251 2.34381,1.5756 5.58108,2.8612 8.78806,3.4898 2.51121,0.4926 3.65537,0.5952 6.68682,0.5994 3.05763,0.012 3.85332,-0.082 6.44993,-0.6957 5.21866,-1.2351 12.16298,-4.1748 16.18146,-6.8503 l 0.8588,-0.5717 -0.27356,0.6059 c -1.34963,2.9909 -15.08269,32.2933 -15.17459,32.3782 -0.0661,0.061 -0.70311,0.2274 -1.41562,0.3697 -0.71245,0.1422 -2.467,0.5087 -3.89899,0.8144 -5.75922,1.2289 -7.03537,1.373 -12.49275,1.4097 -2.27438,0.016 -4.31465,0.012 -4.53387,-0.012 z m -133.56995,-3.3728 c 0.008,-0.068 4.23015,-16.5142 9.39421,-36.5452 l 9.38896,-36.4199 -0.94922,-0.064 c -0.52208,-0.034 -2.23835,-0.069 -3.81405,-0.076 -1.5756,-0.012 -2.86362,-0.045 -2.86221,-0.087 0,-0.04 3.53428,-6.9286 7.85079,-15.3044 l 7.84849,-15.2295 21.71891,-0.028 c 21.94643,-0.03 24.14939,0 26.72695,0.3351 11.37972,1.4892 18.61549,7.7889 20.30664,17.6794 0.25659,1.5005 0.30864,4.9538 0.0996,6.6143 -1.18442,9.4087 -8.46489,18.6451 -19.42907,24.6479 l -0.79079,0.4333 0.34239,0.1494 c 2.67313,1.1682 4.38908,2.2524 5.93577,3.75 3.39505,3.2882 5.05312,7.3986 5.52558,13.6997 0.14765,1.9696 0.0642,5.8947 -0.15406,7.2641 -1.03991,6.5156 -4.06616,12.2998 -9.07011,17.3357 -7.04592,7.0908 -16.82225,11.3002 -27.55992,11.8663 -3.04421,0.1607 -50.51563,0.1407 -50.50887,-0.021 z m 50.07167,-26.4266 c 4.44884,-0.7646 7.9136,-3.2595 9.21318,-6.6335 0.84086,-2.183 0.79127,-4.4105 -0.13985,-6.2697 -0.88898,-1.775 -2.44466,-3.022 -4.61439,-3.699 l -0.87658,-0.2735 -6.41676,-0.033 c -3.52923,-0.018 -6.45192,0 -6.49483,0.048 -0.0434,0.042 -1.04713,3.8226 -2.23151,8.3966 -1.18431,4.5737 -2.17701,8.395 -2.2059,8.4912 -0.0496,0.1658 0.29496,0.1755 6.27173,0.1755 5.87813,0 6.40687,-0.015 7.49491,-0.2013 z m 6.92052,-35.4052 c 5.04706,-0.8977 7.83409,-3.8011 8.39301,-8.7444 0.20999,-1.8572 -0.16019,-3.197 -1.16,-4.1992 -0.68596,-0.6879 -1.34332,-1.0448 -2.49989,-1.3586 -0.75135,-0.2039 -1.13926,-0.2222 -6.75663,-0.3166 -3.50067,-0.059 -5.99587,-0.064 -6.04781,-0.012 -0.0773,0.078 -3.38801,14.5277 -3.38801,14.7868 0,0.065 1.82052,0.084 5.25632,0.056 4.33666,-0.036 5.42201,-0.074 6.20301,-0.2125 z m 106.91151,59.0266 c 5.45958,-10.7619 35.88089,-71.1435 35.88089,-71.218 0,-0.054 -1.72418,-0.1022 -4.17128,-0.1181 l -4.17123,-0.026 7.99262,-14.7782 7.99277,-14.7782 24.61809,-0.026 24.61813,-0.025 0.0614,0.9269 c 0.0343,0.5099 1.02331,23.6281 2.19912,51.3739 1.17576,27.7459 2.15012,50.7063 2.16511,51.0233 l 0.027,0.5761 h -16.46643 -16.46642 v -8.917 -8.9171 h -11.28952 -11.28951 l -3.69818,8.8921 -3.69802,8.8922 -17.89581,0.025 -17.89582,0.026 1.4869,-2.9313 z m 64.37741,-40.7785 c 0,-1.0057 -0.0674,-6.7203 -0.14731,-12.6994 -0.0798,-5.9788 -0.14611,-11.9508 -0.14725,-13.2704 0,-1.4493 -0.038,-2.3621 -0.0931,-2.3045 -0.0891,0.092 -12.54193,29.5823 -12.63814,29.9275 -0.0461,0.1657 0.31038,0.1753 6.48962,0.1753 h 6.53846 l -0.005,-1.8285 z"
       style="fill:#0060af;fill-opacity:1;stroke-width:0.0999193"
       id="path946" />
    <g
       transform="matrix(0.35277777,0,0,-0.35277777,0,100.00001)"
       inkscape:label="BCA Syariah [www.BlogoVector.com]"
       id="g1010" />
    <path
       d="m -449.20337,1239.7323 c -3.11454,-0.2297 -8.58973,-1.032 -8.90225,-1.3045 -0.10314,-0.09 1.09725,-4.8654 2.66755,-10.6122 l 2.85504,-10.4487 0.90432,0.033 c 0.49737,0.018 2.28373,0.1245 3.96968,0.2366 3.45202,0.2295 7.27421,-0.1393 9.9233,-0.9575 1.26558,-0.3909 1.87889,-0.7743 2.74969,-1.719 1.17726,-1.2772 2.67136,-4.1971 3.17878,-6.2122 0.2981,-1.1838 0.21148,-1.4487 -14.00495,-42.838 -7.86768,-22.9057 -14.30489,-41.6831 -14.30489,-41.7275 0,-0.044 6.16149,-0.08 13.69219,-0.078 h 13.69219 l 5.27905,16.3354 c 2.90345,8.9845 6.10097,18.8767 7.10554,21.9827 1.0046,3.1061 1.91831,5.5468 2.03047,5.424 0.11218,-0.1229 3.46257,-10.0163 7.44532,-21.9854 l 7.24138,-21.762 h 13.42879 c 7.38585,0 13.42827,0.089 13.42761,0.1985 0,0.1091 -4.81235,14.4506 -10.69266,31.87 -5.88031,17.4194 -11.95843,35.8146 -13.5069,40.8781 -1.54847,5.0636 -3.46673,11.2189 -4.26281,13.6786 -3.61204,11.1601 -9.09656,19.2308 -15.88283,23.3723 -3.69173,2.2529 -9.56384,4.372 -14.52338,5.2412 -2.84982,0.4994 -9.45711,0.6913 -13.51023,0.3924 z m -57.3981,-39.9898 c -6.30521,-0.7535 -12.77335,-2.581 -17.72709,-5.0087 -3.77767,-1.8513 -6.32111,-3.7306 -8.42534,-6.2254 -2.5563,-3.0309 -5.08632,-7.7969 -5.26055,-9.9097 l -0.0724,-0.8786 10.45104,-1.6512 c 5.74807,-0.9082 10.93764,-1.7254 11.53237,-1.8161 l 1.08135,-0.1648 1.1098,1.7161 c 1.85959,2.8754 4.69659,4.8998 8.2369,5.8775 1.36731,0.3777 2.75008,0.4771 6.74687,0.4853 4.96525,0.01 5.04661,0 6.61459,-0.7322 3.47559,-1.6257 4.79134,-4.1062 3.04395,-5.7386 -1.04188,-0.9732 -3.633,-1.8784 -9.12937,-3.189 -14.20709,-3.3879 -16.08947,-3.966 -20.87174,-6.4095 -5.74815,-2.937 -9.27073,-6.9649 -11.05183,-12.6369 -0.85921,-2.7363 -0.86161,-8.4927 -0.005,-11.9782 2.12307,-8.6386 7.07295,-14.0011 16.27818,-17.6351 12.73966,-5.0293 32.39018,-3.4221 44.17991,3.6134 2.46949,1.4736 6.46605,5.2702 7.94409,7.5465 1.11961,1.7244 2.4184,4.9576 2.10225,5.2334 -0.11621,0.1014 -3.24737,0.8111 -6.95815,1.5772 -3.71078,0.766 -8.60729,1.7802 -10.88112,2.2538 l -4.13422,0.8611 -1.10128,-1.675 c -2.54931,-3.8775 -5.9332,-5.3841 -12.11463,-5.3936 -3.38259,-0.01 -5.22298,0.316 -7.03292,1.2276 -2.10201,1.0588 -2.56188,2.9033 -1.25714,5.0422 1.12977,1.8522 3.29724,2.7184 10.19416,4.0742 14.66903,2.8835 21.50404,5.645 26.21002,10.5894 4.49805,4.7259 6.30801,9.9317 5.69733,16.3866 -0.61286,6.4777 -2.7006,10.8994 -7.15373,15.1509 -4.76755,4.5517 -10.56566,7.1816 -19.72543,8.9471 -2.39725,0.462 -4.09998,0.5743 -9.65729,0.6371 -3.71078,0.042 -7.69937,-0.038 -8.86354,-0.1768 z m 137.18646,-1.5787 c -5.66116,-0.362 -8.87648,-1.4815 -12.93707,-4.5044 -2.46716,-1.8367 -4.18653,-3.8456 -5.2982,-6.1905 -1.07841,-2.2747 -1.42552,-4.083 -1.39385,-7.2619 0.094,-9.4389 5.8919,-17.7365 15.21034,-21.7685 3.39513,-1.469 7.73335,-2.5228 22.67503,-5.5079 7.3488,-1.4681 14.43302,-3.0259 15.74271,-3.4618 4.3734,-1.4554 5.68568,-2.6343 5.68756,-5.1096 0.003,-3.9219 -3.32319,-6.0769 -9.39173,-6.0849 -3.41082,0 -5.60408,0.5608 -8.99115,2.3172 -2.41469,1.2521 -4.84095,3.5016 -5.5776,5.1713 -0.26511,0.6009 -0.66749,1.0949 -0.89413,1.0976 -0.53766,0.01 -25.78936,-2.9636 -25.88578,-3.0448 -0.0405,-0.034 0.23903,-0.9417 0.62119,-2.0168 1.88246,-5.296 5.91127,-10.145 11.6233,-13.9896 4.49604,-3.0262 8.29366,-4.5978 13.73146,-5.6824 5.44017,-1.0851 8.69222,-1.2821 18.65662,-1.1304 10.32131,0.1572 13.01517,0.478 18.54422,2.2085 3.85717,1.2072 5.96924,2.1657 8.0604,3.6579 3.57306,2.5497 5.14114,5.1825 6.23826,10.4741 1.07784,5.1987 0.52237,10.6451 -3.02162,29.6268 -1.10035,5.8936 -2.26274,12.2635 -2.5831,14.1552 -0.98935,5.8427 -0.72056,11.6776 0.69176,15.0151 0.18507,0.4374 -0.53155,0.4631 -12.94414,0.4631 h -13.14008 l -0.48762,-1.1245 c -0.48321,-1.1143 -0.89144,-3.288 -1.21828,-6.4867 l -0.16939,-1.6581 -0.9657,0.8133 c -5.85531,4.9309 -10.36738,7.1666 -17.79765,8.8187 -5.28579,1.1752 -9.66226,1.5316 -14.78576,1.204 z m 21.86641,-16.414 c 6.52968,-2.015 11.65786,-6.7492 13.43702,-12.4048 0.67091,-2.1327 1.59788,-7.1078 1.36729,-7.3383 -0.14266,-0.1427 -3.81084,0.7558 -12.59364,3.0847 -8.7137,2.3105 -12.98622,4.5972 -14.37396,7.6932 -0.38246,0.8532 -0.53462,1.7603 -0.53695,3.2008 -0.004,2.6962 0.78036,4.1216 2.81787,5.1185 2.70388,1.3228 6.81746,1.5917 9.88237,0.6459 z m 158.18255,16.4124 c -5.88311,-0.3663 -9.70854,-1.8414 -13.90038,-5.3601 -4.45802,-3.7422 -6.26952,-8.5379 -5.53832,-14.662 0.77555,-6.4956 3.75532,-11.8073 8.9775,-16.0033 4.56298,-3.6663 9.30072,-5.3746 21.44141,-7.7313 23.21918,-4.5071 27.18025,-5.6379 28.46761,-8.1274 0.64413,-1.2456 0.37185,-3.6429 -0.5678,-4.9988 -1.46224,-2.11 -5.81202,-3.4276 -10.0153,-3.0337 -5.4161,0.5075 -11.39729,3.9863 -13.05803,7.5948 -0.3121,0.6782 -0.63627,1.0035 -1.00431,1.0082 -0.2989,0 -6.0139,-0.6475 -12.7,-1.4471 -6.6861,-0.7997 -12.37292,-1.4545 -12.6374,-1.4552 -0.5539,0 -0.53234,-0.1087 0.64008,-3.1828 2.69135,-7.0569 11.11073,-14.4036 19.81682,-17.2921 6.46618,-2.1453 11.25207,-2.6477 23.54792,-2.4718 7.90506,0.113 9.87462,0.2205 12.43541,0.6787 5.49035,0.9822 10.66782,2.7338 13.50937,4.5704 3.76991,2.4366 5.69534,5.1821 6.84395,9.7588 1.48775,5.928 1.05968,10.5057 -3.03467,32.4516 -2.21676,11.8819 -3.02091,17.1161 -3.02702,19.7028 -0.005,1.9883 0.57986,5.6574 1.16597,7.3186 l 0.39394,1.1166 h -13.10003 -13.10002 l -0.49377,-1.1245 c -0.54104,-1.2321 -0.93413,-3.2589 -1.2061,-6.2186 l -0.17634,-1.9192 -1.05151,0.8608 c -4.96708,4.0662 -7.58121,5.6242 -12.02238,7.1655 -6.57608,2.2823 -13.60064,3.2371 -20.6066,2.8011 z m 23.28334,-16.8678 c 3.21921,-1.2576 5.28468,-2.5987 7.8092,-5.0703 3.23162,-3.1638 4.45416,-5.8343 5.44277,-11.889 0.20043,-1.2274 0.3111,-2.285 0.24593,-2.3502 -0.2677,-0.2677 -16.79882,4.143 -19.18644,5.1192 -6.35773,2.5993 -8.30919,4.6795 -8.30742,8.8555 0,2.5784 0.65141,3.9108 2.41266,4.9429 1.7607,1.0319 3.73269,1.4097 6.8208,1.3069 2.20387,-0.073 2.9994,-0.2262 4.7625,-0.915 z m -139.03855,14.8956 c 0,-0.3943 12.1529,-69.6844 12.72498,-72.5518 l 0.27712,-1.3891 h 13.475 c 11.95096,0 13.47499,0.046 13.47499,0.4071 0,0.2239 -0.41672,2.7113 -0.92604,5.5277 -1.26051,6.9701 -1.25175,7.0264 0.6527,4.202 3.57838,-5.3069 10.13864,-9.8118 16.14186,-11.0845 2.95838,-0.6272 9.59313,-0.3682 12.32733,0.4812 l 1.07603,0.3342 -2.18003,12.1283 c -1.19901,6.6706 -2.23502,12.1833 -2.30219,12.2505 -0.0672,0.067 -1.05865,-0.114 -2.20329,-0.4027 -3.51949,-0.8874 -6.29426,-1.1728 -9.86081,-1.0139 -9.39414,0.4184 -14.18069,3.9072 -17.21803,12.5498 -1.33345,3.7943 -1.48241,4.5145 -4.74295,22.9337 l -2.815,15.9023 -13.95085,0.068 c -12.47733,0.061 -13.95082,0.025 -13.95082,-0.3432 z m 61.39651,0.079 c 0.007,-0.1832 2.90132,-16.8828 6.43128,-37.1102 l 6.41808,-36.7771 13.55723,-0.069 13.55719,-0.069 -0.18669,0.9946 c -0.10268,0.547 -3.00365,17.2466 -6.44662,37.1102 l -6.25991,36.1157 -13.54188,0.069 c -10.751,0.054 -13.53913,-10e-5 -13.52868,-0.2646 z m 118.78475,0.1777 c 0,-0.2274 17.15386,-97.0976 17.48451,-98.7374 l 0.28009,-1.389 h 12.945826 c 7.120202,0 12.941962,0.089 12.937252,0.1984 -0.0048,0.1092 -1.480053,8.7114 -3.278558,19.1162 -1.798505,10.4047 -3.241437,18.9493 -3.206485,18.9879 0.03495,0.039 1.004279,-0.7748 2.154105,-1.8076 6.214269,-5.5817 12.352073,-9.1656 18.627011,-10.8765 1.947228,-0.5309 2.852447,-0.6122 6.746875,-0.606 5.431394,0.01 7.779941,0.5062 11.999411,2.5416 3.623019,1.7478 5.854303,3.901 7.399152,7.1402 1.675448,3.5131 2.016469,5.2442 2.000012,10.1526 -0.0164,4.8913 0.325411,2.627 -4.971124,32.9324 -2.122858,12.1464 -3.859742,22.1774 -3.859742,22.2911 0,0.1137 -6.310312,0.2068 -14.022917,0.2068 -12.565433,0 -14.022917,-0.043 -14.022917,-0.4154 0,-0.2284 1.306063,-7.2829 2.902347,-15.6765 4.134723,-21.7413 4.598405,-24.6271 4.620154,-28.755 0.01667,-3.1601 -0.03561,-3.5469 -0.643334,-4.7604 -0.779357,-1.5563 -2.062216,-2.5078 -4.437327,-3.2913 -4.091491,-1.3496 -8.875528,-0.07 -11.735118,3.138 -1.456373,1.634 -3.310599,5.0734 -4.198753,7.7882 -0.326787,0.9989 -2.277957,10.8216 -4.335886,21.8281 l -3.741711,20.012 -13.821433,0.069 c -7.6018,0.038 -13.82144,0 -13.82144,-0.087 z"
       style="fill:#00a6b5;fill-opacity:1;stroke-width:0.264583"
       id="path875" />
  </g>
</svg>
